<svg width="29" height="54" viewBox="0 0 29 54" fill="none" xmlns="http://www.w3.org/2000/svg">
<path d="M28.62 36.54C28.62 38.46 28.14 40.3 27.18 42.06C26.22 43.78 24.8 45.22 22.92 46.38C21.08 47.54 18.86 48.2 16.26 48.36V53.22H13.02V48.36C9.38 48.04 6.42 46.88 4.14 44.88C1.86 42.84 0.7 40.26 0.66 37.14H6.48C6.64 38.82 7.26 40.28 8.34 41.52C9.46 42.76 11.02 43.54 13.02 43.86V28.86C10.34 28.18 8.18 27.48 6.54 26.76C4.9 26.04 3.5 24.92 2.34 23.4C1.18 21.88 0.6 19.84 0.6 17.28C0.6 14.04 1.72 11.36 3.96 9.24C6.24 7.12 9.26 5.94 13.02 5.7V0.719997H16.26V5.7C19.66 5.98 22.4 7.08 24.48 9C26.56 10.88 27.76 13.34 28.08 16.38H22.26C22.06 14.98 21.44 13.72 20.4 12.6C19.36 11.44 17.98 10.68 16.26 10.32V24.96C18.9 25.64 21.04 26.34 22.68 27.06C24.36 27.74 25.76 28.84 26.88 30.36C28.04 31.88 28.62 33.94 28.62 36.54ZM6.18 16.98C6.18 18.94 6.76 20.44 7.92 21.48C9.08 22.52 10.78 23.38 13.02 24.06V10.2C10.94 10.4 9.28 11.08 8.04 12.24C6.8 13.36 6.18 14.94 6.18 16.98ZM16.26 43.92C18.42 43.68 20.1 42.9 21.3 41.58C22.54 40.26 23.16 38.68 23.16 36.84C23.16 34.88 22.56 33.38 21.36 32.34C20.16 31.26 18.46 30.4 16.26 29.76V43.92Z" fill="white"/>
</svg>
